<svg height="64" viewBox="0 0 64 64" width="64" xmlns="http://www.w3.org/2000/svg"><g fill="none" fill-rule="evenodd"><circle cx="32" cy="32" fill="#0a3586" r="30"/><path d="m40.6322676 32.5045356c0-2.0269365-1.607513-3.6377029-3.3974699-3.6377029-1.3676783 0-2.5768207 0-3.3801175 1.6967023-.1483035.3132427-.3199772 1.2253581-.3199772 1.6764803v8.7599845l-4.3452049-.0000003-.0000001-11.1267383v-5.4881811h4.5121351l.2225728 2.1644302h.0974048c.6514664-1.0284679 2.1320447-2.1644302 4.8032287-2.1644302 3.256186 0 6.1751606 2.5265501 6.1751606 7.1577691v9.4571506h-4.3677324zm-17.2933283-10.0940307c-1.4215959 0-2.3389393-.9860698-2.3389393-2.2044865 0-1.2480345.947036-2.2060184 2.3972825-2.2060184s2.3389393.9574733 2.3686318 2.2060184c.0005209 1.2184167-.9178643 2.2044865-2.426975 2.2044865zm-1.8155 18.5894949-.0000001-16.6149195 3.8153248.0000002.0000002 16.6149195z" fill="#fff"/></g></svg>